<svg width="198" height="54" viewBox="0 0 198 54" fill="none" xmlns="http://www.w3.org/2000/svg">
<mask id="mask0_1_1286" style="mask-type:luminance" maskUnits="userSpaceOnUse" x="0" y="0" width="198" height="54">
<path d="M198 0H0V54H198V0Z" fill="white"/>
</mask>
<g mask="url(#mask0_1_1286)">
<path d="M13.6225 0.0825956C14.3455 0.193652 15.1963 0.312859 15.9456 0.938443C16.3163 1.25021 16.6239 1.61803 16.8494 2.0592C17.7904 3.91026 18.4342 5.89876 18.7572 7.9513C18.8923 8.79696 18.9654 9.65281 19.001 10.5077C19.0448 11.4862 19.0115 12.4666 18.9014 13.44C18.6769 15.5657 18.1153 17.6418 17.2382 19.5899C16.5093 21.216 15.5667 22.7371 14.4358 24.1126C13.3458 25.4437 12.0881 26.627 10.6941 27.6327C9.15186 28.7498 7.4556 29.6353 5.65882 30.2614C5.24251 30.4092 5.1166 30.3348 5.04451 29.8946C4.7953 28.3193 4.39891 26.7709 3.86057 25.27C3.30008 23.6612 2.5761 22.1268 1.83488 20.5913C0.986017 18.8451 0.362571 17.0151 0.117864 15.067C-0.225337 12.3549 0.180817 9.77202 1.33836 7.3084C2.04121 5.79503 3.02271 4.42853 4.23119 3.28082C5.91165 1.70157 7.86423 0.662331 10.1153 0.211992C10.2605 0.184483 10.8474 0.0734258 11.6343 0.0285956C12.2761 6.73477e-05 12.8731 -0.0366118 13.6225 0.0825956Z" fill="#4060AA"/>
<path d="M29.3427 23.3679C29.8301 23.0184 30.1652 22.5773 30.4271 22.0627C30.7439 21.4554 30.5358 21.0052 30.0748 20.6282C29.8311 20.4264 29.5773 20.2511 29.3783 19.9944C28.9446 19.4513 29.0076 18.8359 29.5681 18.4132C29.7671 18.2563 30.0027 18.1462 30.2099 18.0087C30.6078 17.7417 30.9064 17.3831 31.0963 16.9419C31.2861 16.5099 31.1328 16.0321 30.7165 15.71C30.2291 15.3331 29.6859 15.0387 29.1792 14.681C28.6005 14.2766 28.0044 13.8812 27.4347 13.4584C26.5311 12.7961 25.9523 11.8771 25.5279 10.847C25.2741 10.2316 25.139 9.5877 24.9308 8.95395C24.3791 7.27631 23.5038 5.72398 22.3549 4.38536C21.9416 3.90081 21.4947 3.44628 21.0176 3.02517C20.9627 2.9783 20.9089 2.92329 20.8551 2.86827C20.8109 2.82 20.7848 2.75775 20.7814 2.69225C20.7781 2.62676 20.7977 2.56216 20.8368 2.50963C20.9079 2.39042 21.0176 2.32622 21.1618 2.36291C21.6319 2.48212 22.1111 2.58298 22.5904 2.64819C23.5195 2.77529 24.4607 2.7876 25.3929 2.68487C26.8835 2.5188 28.3029 2.05929 29.6859 1.48974C30.3459 1.2228 30.9876 0.919178 31.6659 0.699103C32.597 0.404651 33.5454 0.184576 34.5222 0.0918586C35.2374 0.0229443 35.957 0.0137429 36.6738 0.0643491C38.1654 0.184576 39.593 0.570727 40.9404 1.2228C42.4291 1.93654 43.7599 2.94305 44.8537 4.18261C46.4905 6.02166 47.5384 8.16331 48.0267 10.5903C48.2705 11.7854 48.3162 12.9988 48.2533 14.2031C48.172 15.7284 47.7739 17.1987 47.2683 18.6332C46.7789 20.0128 46.1007 21.2996 45.4863 22.6231C44.8445 24.0108 44.3481 25.4546 43.9145 26.9156C43.6343 27.8437 43.3804 28.773 43.2179 29.7195C43.0945 30.4719 43.007 31.2298 42.956 31.9905C42.8107 33.8836 42.8645 35.7777 42.829 37.6707C42.7935 39.5556 42.6849 41.4405 42.2868 43.2877C41.7402 45.879 40.6085 48.3099 38.9787 50.3933C38.0831 51.5518 37.0617 52.59 35.7873 53.3348C35.0461 53.7668 34.2694 54.0337 33.3921 53.9971C32.1269 53.9329 31.1592 53.1331 30.8435 51.8829C30.617 50.972 30.617 50.053 30.6078 49.1248C30.6078 48.5451 30.6262 47.9756 30.5896 47.3968C30.5384 46.3762 30.4237 45.3598 30.2463 44.3535C30.0563 43.2005 29.769 42.0658 29.3874 40.9617C28.9092 39.6015 28.3029 38.3147 27.3261 37.2387C26.5402 36.3656 25.6 35.7868 24.416 35.685C23.4129 35.6034 22.5275 35.9244 21.7314 36.5123C20.7912 37.2112 20.1494 38.1486 19.6255 39.1878C18.8294 40.7416 18.3593 42.4146 18.0435 44.1242C17.8477 45.2084 17.7238 46.3044 17.6729 47.405C17.6272 48.27 17.6729 49.1432 17.6455 50.0072C17.6181 50.7887 17.5825 51.561 17.284 52.2966C16.8596 53.3531 16.0553 53.8961 14.97 53.9777C13.6236 54.0795 12.5198 53.509 11.5623 52.6084C10.4768 51.5792 9.93463 50.2833 9.79959 48.7845C9.53762 45.834 10.0981 43.0391 11.3175 40.3646C12.1137 38.6183 13.1798 37.0635 14.5445 35.741C16.4067 33.9294 18.5948 32.7435 21.1343 32.2198C22.3193 31.9712 23.5205 31.9621 24.7237 31.9253C25.9432 31.8978 27.182 31.8153 28.3385 31.3283C28.7365 31.1623 29.0797 30.9147 29.3427 30.556C29.7671 29.9681 29.759 29.3333 29.5417 28.6904C29.3874 28.23 29.2249 27.7796 29.1163 27.3018C28.9538 26.6394 29.1975 26.125 29.7042 25.7204C30.3367 25.2242 30.4089 24.3511 29.8575 23.7724C29.7315 23.6613 29.5417 23.5237 29.3427 23.3679Z" fill="#4060AA"/>
<path d="M65.164 5.61768H67.9726C67.8385 5.94881 67.6893 6.26568 67.6081 6.5968C67.5542 6.8179 67.541 6.90043 67.8112 6.92794C69.3647 7.10726 70.8085 7.60344 72.0778 8.56831C73.28 9.49344 74.1847 10.6376 74.4822 12.1689C74.928 14.5123 74.1167 16.3748 72.2809 17.8094C70.971 18.8293 69.4723 19.3947 67.8375 19.5741C67.5948 19.6016 67.5542 19.6851 67.5674 19.9052C67.5816 20.3739 67.6761 20.8018 67.9736 21.2297H65.2584C65.4748 20.8426 65.5966 20.4299 65.6504 19.9877C65.6778 19.7126 65.6239 19.6158 65.3397 19.5883C63.247 19.3397 61.4375 18.4981 59.9784 16.926C57.9131 14.6927 58.0614 11.2998 60.2891 9.2316C61.7482 7.87956 63.449 7.09402 65.4067 6.90043C65.6097 6.87292 65.6504 6.80363 65.5966 6.62534C65.5428 6.45926 65.5021 6.27892 65.4341 6.11488C65.3397 5.96205 65.2584 5.797 65.164 5.61768ZM65.6372 13.2581V8.25246C65.6372 8.03137 65.5966 7.96209 65.367 8.00386C64.2868 8.19744 63.2875 8.59684 62.4367 9.31412C60.5054 10.8862 59.9388 13.4792 61.0862 15.5618C62.0042 17.2021 63.449 18.0987 65.2594 18.4574C65.6239 18.5267 65.6504 18.4024 65.6504 18.0987C65.6372 16.4849 65.6372 14.872 65.6372 13.2581ZM67.5816 8.00386C67.5674 8.08639 67.5674 8.15567 67.5674 8.22394C67.5674 11.5484 67.5674 14.8852 67.5542 18.2088C67.5542 18.5125 67.6892 18.4716 67.8792 18.4299C69.2154 18.1813 70.3496 17.5475 71.2949 16.5541C73.0769 14.6652 73.1449 12.0172 71.4432 10.0589C70.4176 8.87295 69.121 8.21069 67.5816 8.00386Z" fill="black"/>
<path d="M184.416 21.2976H182.309C182.188 21.2976 182.134 21.2702 182.175 21.1326C182.634 19.9467 182.498 18.6914 182.498 17.4646C182.511 14.4997 182.498 11.5339 182.498 8.5547V8.11353C178.286 12.7615 174.139 17.3547 169.913 22.015V21.5737C169.913 16.8564 169.913 12.1268 169.925 7.41051C169.925 6.88682 169.886 6.37636 169.723 5.87915C169.657 5.67232 169.696 5.60407 169.913 5.61731C170.494 5.63157 171.061 5.61731 171.641 5.61731C171.263 7.35549 171.426 9.10692 171.411 10.8584C171.385 13.1609 171.411 15.4636 171.411 17.8091C171.574 17.7683 171.628 17.6429 171.709 17.5605C175.112 13.6714 178.501 9.7967 181.89 5.89342C181.954 5.81108 182.036 5.74543 182.13 5.70212C182.223 5.65879 182.327 5.63913 182.431 5.64482C183.146 5.65908 183.862 5.64482 184.713 5.64482C183.889 6.11349 183.97 6.83078 183.97 7.52055V19.3394C183.997 20.0016 183.957 20.6639 184.416 21.2976Z" fill="black"/>
<path d="M99.3969 21.2705C95.7101 21.2705 92.4559 18.8985 91.5237 15.5058C90.5388 11.9204 91.7674 8.47255 95.1294 6.40425C99.1269 3.92127 105.284 5.43836 106.986 10.9963C108.444 15.7686 105.353 20.5808 100.49 21.2155C100.084 21.243 99.6934 21.2563 99.3969 21.2705ZM105.392 13.7411C105.353 11.5485 104.838 10.0314 103.745 8.72115C101.678 6.23817 97.9653 5.85202 95.5487 7.94885C93.4012 9.82357 92.8072 12.279 93.4143 15.0238C94.1708 18.4849 97.5063 20.5532 100.787 19.6577C103.407 18.9546 105.405 16.1823 105.392 13.7411Z" fill="black"/>
<path d="M163.133 5.61885H165.888C165.482 6.39114 165.563 7.20522 165.563 8.00503V19.4234C165.563 19.6446 165.605 19.8238 165.725 20.0582C166.063 20.6512 166.239 21.3267 166.509 22.0307C166.414 21.9614 166.359 21.9482 166.333 21.9196C165.765 21.3817 165.105 21.2166 164.335 21.2309C162.04 21.2716 159.743 21.2441 157.447 21.2584C156.138 21.2584 154.841 21.2716 153.532 21.2716H153.154C153.627 20.6787 153.545 20.0164 153.545 19.3827V7.59137C153.545 6.9016 153.559 6.21183 153.1 5.64635C153.194 5.53632 153.288 5.57809 153.384 5.57809H155.531C155.665 5.57809 155.814 5.56383 155.707 5.78492C155.381 6.41866 155.381 7.09519 155.381 7.78393V19.5345C155.381 19.8371 155.45 19.9064 155.746 19.9064C158.258 19.8931 160.783 19.8931 163.295 19.9064C163.551 19.9064 163.62 19.8513 163.62 19.5752C163.605 15.3968 163.605 11.2185 163.62 7.03914C163.62 6.51544 163.551 6.04677 163.133 5.61885Z" fill="black"/>
<path d="M138.827 21.2579H136.14C136.612 20.6649 136.504 19.9884 136.504 19.3404V7.36967C136.504 6.74918 136.477 6.14296 136.005 5.57646H137.72C138.043 5.57646 138.462 5.45318 138.637 5.61823C138.84 5.79755 138.462 6.14295 138.435 6.43231C138.422 6.66665 138.368 6.91525 138.368 7.14959C138.354 8.61065 138.368 10.087 138.354 11.5491C138.354 11.7834 138.422 11.8242 138.625 11.8242C141.191 11.8109 143.756 11.8242 146.321 11.8242C146.456 11.8242 146.592 11.8518 146.592 11.6174C146.578 10.0177 146.565 8.41808 146.565 6.8317C146.572 6.39563 146.407 5.97439 146.105 5.66001H148.82C148.387 6.50159 148.509 7.41144 148.509 8.30804C148.495 12.0871 148.509 15.8783 148.509 19.6583C148.509 20.1269 148.55 20.5956 148.752 21.0235C148.846 21.2171 148.779 21.2436 148.604 21.2436H146.241C146.686 20.6924 146.565 20.0852 146.565 19.4922C146.565 17.4646 146.565 15.4371 146.578 13.3963C146.578 13.1345 146.524 13.0519 146.254 13.0519C143.742 13.0652 141.216 13.0652 138.706 13.0519C138.462 13.0519 138.354 13.0927 138.368 13.3831C138.381 15.4789 138.368 17.5614 138.381 19.6583C138.395 20.2095 138.449 20.7607 138.827 21.2579Z" fill="black"/>
<path d="M193.314 12.9967C192.855 12.9691 192.463 12.9967 192.098 12.8999C189.911 12.3069 188.439 9.7832 189.601 7.47955C190.167 6.3486 191.193 5.78414 192.423 5.61807C193.597 5.46626 194.8 5.57732 195.988 5.5498C196.636 5.53555 197.297 5.5498 198 5.5498C197.487 6.43214 197.541 7.35626 197.541 8.28037V19.2708C197.541 19.9331 197.473 20.5954 197.878 21.2169H195.367C195.84 19.2158 195.515 17.175 195.596 15.1475C195.623 14.3344 195.596 13.5204 195.596 12.6513C195.326 12.8448 195.164 13.0792 195.002 13.3003C193.018 15.8923 191.033 18.471 189.047 21.0641C188.913 21.2301 188.79 21.2984 188.574 21.2984C187.805 21.2851 187.022 21.2984 186.252 21.2984C186.252 21.2576 186.238 21.2301 186.238 21.2169C187.453 20.361 188.25 19.1058 189.168 17.9748C190.343 16.5413 191.423 15.0243 192.652 13.6304C192.842 13.4236 193.057 13.2442 193.314 12.9967ZM195.583 9.5346C195.583 8.74904 195.569 7.94924 195.583 7.16267C195.583 6.92833 195.502 6.83155 195.286 6.77653C194.625 6.59566 193.931 6.57228 193.26 6.70826C191.991 6.97011 191.247 7.81067 191.112 9.1627C190.992 10.4036 191.599 11.397 192.761 11.8658C193.597 12.2101 194.475 12.2519 195.352 12.2377C195.569 12.2377 195.556 12.1001 195.556 11.9482C195.583 11.1342 195.583 10.3344 195.583 9.5346Z" fill="black"/>
<path d="M82.908 7.92047C82.3007 9.38152 81.72 10.7754 81.1391 12.1814C80.049 14.8281 78.9507 17.4714 77.8442 20.1113C77.7092 20.4291 77.5599 20.746 77.6554 21.1178C77.6817 21.229 77.6412 21.2707 77.5335 21.2707H75.1433C76.507 19.9594 76.8988 18.208 77.6147 16.6227C79.0058 13.5049 80.3014 10.3474 81.6661 7.21643C81.8682 6.76202 81.9494 6.30659 81.8956 5.82364C81.8682 5.57606 81.9494 5.52002 82.1789 5.53428C82.6785 5.54855 83.1912 5.54855 83.6918 5.53428C83.9071 5.53428 84.0015 5.60357 84.096 5.80938C85.7307 9.57511 87.3777 13.3399 89.0114 17.0913C89.4175 18.0154 89.8084 18.9528 90.2806 19.8494C90.5375 20.3323 90.8482 20.7593 91.1853 21.229H88.1879C88.4722 20.5667 88.1879 19.987 87.9311 19.4082C86.3146 15.6902 84.69 11.9757 83.0572 8.26484C83.0206 8.14476 82.9705 8.02923 82.908 7.92047Z" fill="black"/>
<path d="M123.216 21.2589C123.635 20.6517 123.554 20.0169 123.554 19.3832V7.12314C123.554 6.58519 123.514 6.07372 123.08 5.60504H123.486C125.971 5.60504 128.455 5.61931 130.939 5.5918C131.278 5.5918 131.344 5.70183 131.332 6.00545C131.304 6.46089 131.332 6.91633 131.332 7.48179C130.738 6.737 129.981 6.84704 129.253 6.84704C128.117 6.84704 126.997 6.86028 125.863 6.83277C125.592 6.83277 125.539 6.91633 125.539 7.17817C125.552 8.62598 125.552 10.088 125.539 11.5359C125.539 11.7977 125.606 11.8527 125.849 11.8395C127.565 11.8252 129.279 11.8395 131.008 11.8252C131.25 11.8252 131.372 11.866 131.344 12.1564C131.319 12.5293 131.332 12.9011 131.344 13.274C131.344 13.4391 131.319 13.5358 131.142 13.4391C130.481 13.1222 129.765 13.0805 129.036 13.0947C127.983 13.108 126.943 13.108 125.89 13.0947C125.66 13.0947 125.606 13.1629 125.606 13.3973C125.62 15.4942 125.606 17.6042 125.606 19.7C125.606 19.8386 125.552 19.9894 125.794 19.9894C127.496 19.9762 129.211 20.0037 130.913 19.9618C131.805 19.9343 132.155 19.7826 133.087 19.2721C132.87 19.9487 132.682 20.5558 132.466 21.1754C132.412 21.3281 132.264 21.2447 132.155 21.2447H124.391C124 21.2589 123.635 21.2589 123.216 21.2589Z" fill="black"/>
<path d="M112.413 13.3697V18.3489C112.413 18.9694 112.373 19.6031 112.455 20.2236C112.495 20.514 112.561 20.7901 112.657 21.052C112.711 21.1753 112.724 21.2721 112.536 21.2721C111.738 21.2588 110.942 21.2721 110.064 21.2721C110.631 20.6383 110.523 19.9343 110.523 19.2445V7.3849C110.523 6.77766 110.604 6.15716 110.185 5.64671C110.239 5.60596 110.253 5.57845 110.267 5.57845C112.021 5.57845 113.777 5.52242 115.52 5.60596C117.248 5.70173 118.963 7.06701 119.382 8.65339C119.989 10.956 118.532 13.3565 116.208 13.8251C114.912 14.087 113.67 13.9494 112.413 13.3697ZM112.413 9.81184V11.8252C112.413 12.7625 112.508 12.8593 113.413 13.0386L113.616 13.0804C115.871 13.3423 117.721 11.9494 117.531 9.56324C117.437 8.4323 117.072 7.46742 115.912 7.05377C114.858 6.68086 113.764 6.68086 112.67 6.86018C112.467 6.88871 112.387 6.99874 112.387 7.21883C112.413 8.07467 112.413 8.94274 112.413 9.81184Z" fill="black"/>
<path d="M142.07 49.4999V43.2002H142.71V48.4199L146.642 43.2002H147.231V49.4999H146.59V44.2905L142.657 49.501L142.07 49.4999Z" fill="black"/>
<path d="M133.518 49.4999V43.2002H134.159V48.4199L138.091 43.2002H138.68V49.4999H138.039V44.2905L134.106 49.501L133.518 49.4999Z" fill="black"/>
<path d="M124.941 49.4999V43.2002H125.582V48.9242H129.295V43.2002H129.936V49.4999H124.941ZM130.304 50.9762V49.3206L130.471 49.4999H129.295V48.9242H130.91V50.9762H130.304Z" fill="black"/>
<path d="M116.189 49.4999L118.997 43.2002H119.638L122.447 49.4999H121.762L119.181 43.5875H119.445L116.865 49.4999H116.189ZM117.294 47.8177L117.487 47.2777H121.06L121.253 47.8177H117.294Z" fill="black"/>
<path d="M112.145 49.4999V43.5976L112.32 43.777H109.985V43.2002H114.945V43.7759H112.618L112.785 43.5966V49.4999H112.145Z" fill="black"/>
<path d="M106.893 43.2002H107.534V49.4999H106.893V43.2002ZM103.049 49.4999H102.399V43.2002H103.049V49.4999ZM106.955 46.5931H102.978V46.0082H106.955V46.5931Z" fill="black"/>
<path d="M93.6455 49.4999L96.4541 43.2002H97.0947L99.9033 49.4999H99.2189L96.6388 43.5875H96.9018L94.3208 49.4999H93.6455ZM94.7513 47.8177L94.9442 47.2777H98.5173L98.7102 47.8177H94.7513Z" fill="black"/>
<path d="M85.8937 49.5539C85.8142 49.5544 85.7348 49.5485 85.6561 49.5366C85.5703 49.5289 85.4854 49.5139 85.4023 49.4917L85.4551 48.8967C85.5535 48.9212 85.65 48.9335 85.7444 48.9335C86.0084 48.9335 86.2187 48.8285 86.376 48.6176C86.5405 48.4026 86.6634 48.0725 86.7446 47.6282C86.8269 47.1779 86.8796 46.6022 86.903 45.9002L86.9903 43.2002H91.1605V49.4999H90.5198V43.5976L90.6863 43.777H87.4036L87.5609 43.5884L87.4818 45.883C87.465 46.4309 87.421 46.9777 87.3498 47.5213C87.302 47.9121 87.2079 48.2959 87.0695 48.6644C86.9476 48.964 86.7892 49.1891 86.5954 49.339C86.4025 49.4836 86.1689 49.5539 85.8937 49.5539Z" fill="black"/>
<path d="M77.8752 49.4999V43.2002H83.0445V49.4999H82.4049V43.5976L82.5714 43.777H78.3484L78.5159 43.5976V49.501L77.8752 49.4999Z" fill="black"/>
<path d="M68.1072 49.4999V43.2002H68.6423L71.4509 48.1142H71.1706L73.9527 43.2002H74.4889V49.4999H73.8644V44.1987H74.0137L71.4498 48.6991H71.1432L68.562 44.1997H68.7286V49.4999H68.1072Z" fill="black"/>
<path d="M59.5544 49.4999V43.2002H60.1951V48.4199L64.1277 43.2002H64.7166V49.4999H64.075V44.2905L60.1423 49.501L59.5544 49.4999Z" fill="black"/>
<path d="M178.932 37.4998V31.1991H179.573V36.4198L183.506 31.1991H184.093V37.4998H183.453V32.2872L179.52 37.4987L178.932 37.4998ZM181.494 30.7406C181.056 30.7406 180.708 30.6388 180.45 30.4349C180.198 30.2312 180.07 29.9459 180.064 29.5791H180.546C180.545 29.6876 180.568 29.795 180.613 29.8934C180.659 29.9917 180.726 30.0783 180.81 30.1466C180.985 30.2841 181.214 30.3535 181.494 30.3535C181.775 30.3535 182 30.2841 182.171 30.1466C182.257 30.0797 182.327 29.9936 182.374 29.895C182.421 29.7966 182.445 29.6884 182.443 29.5791H182.925C182.919 29.9459 182.788 30.2312 182.53 30.4349C182.272 30.6388 181.927 30.7406 181.494 30.7406Z" fill="black"/>
<path d="M172.843 37.5557C172.402 37.5596 171.964 37.4801 171.552 37.3214C171.169 37.1651 170.82 36.9357 170.525 36.6459C170.239 36.3522 170.009 36.0073 169.85 35.629C169.688 35.2228 169.607 34.7887 169.611 34.3514C169.611 33.8888 169.691 33.466 169.85 33.0819C170.006 32.702 170.235 32.3566 170.525 32.065C170.818 31.7716 171.16 31.5455 171.552 31.3905C171.944 31.2275 172.375 31.147 172.843 31.147C173.305 31.147 173.732 31.2285 174.124 31.3905C174.516 31.5464 174.855 31.7675 175.143 32.0559C175.435 32.3442 175.66 32.6835 175.818 33.0737C175.983 33.4629 176.063 33.8888 176.063 34.3514C176.063 34.8129 175.983 35.2387 175.818 35.629C175.661 36.0097 175.431 36.3554 175.141 36.6458C174.85 36.9362 174.504 37.1655 174.124 37.3203C173.732 37.4773 173.305 37.5557 172.843 37.5557ZM172.843 36.9617C173.212 36.9617 173.551 36.8985 173.861 36.7722C174.177 36.6397 174.449 36.4563 174.676 36.223C174.91 35.9853 175.094 35.7043 175.221 35.3957C175.349 35.0768 175.415 34.7294 175.415 34.3514C175.415 33.9734 175.349 33.628 175.221 33.3162C175.097 33.0056 174.913 32.7237 174.676 32.4879C174.447 32.2472 174.17 32.0601 173.861 31.9397C173.538 31.805 173.192 31.7374 172.843 31.741C172.475 31.741 172.131 31.8072 171.815 31.9397C171.504 32.0618 171.223 32.2486 170.991 32.4879C170.762 32.7222 170.581 32.9973 170.447 33.3162C170.314 33.6449 170.248 33.9968 170.252 34.3514C170.252 34.7232 170.317 35.0686 170.447 35.3865C170.575 35.6964 170.76 35.9799 170.991 36.223C171.224 36.4574 171.499 36.6408 171.815 36.7732C172.131 36.8985 172.475 36.9617 172.843 36.9617Z" fill="black"/>
<path d="M162.255 37.4994V31.1987H164.81C165.46 31.1987 165.969 31.3374 166.337 31.6135C166.712 31.8835 166.899 32.2818 166.899 32.8096C166.899 33.3322 166.721 33.7276 166.364 33.9976C166.007 34.2625 165.538 34.3949 164.959 34.3949L165.108 34.1687C165.792 34.1687 166.314 34.3074 166.671 34.5835C167.027 34.8586 167.206 35.264 167.206 35.798C167.206 36.338 167.02 36.7577 166.644 37.0582C166.276 37.3517 165.72 37.4994 164.977 37.4994H162.255ZM162.896 36.9676H164.977C165.497 36.9676 165.892 36.8687 166.161 36.6711C166.43 36.4734 166.566 36.1667 166.566 35.7531C166.566 35.3455 166.43 35.045 166.161 34.8535C165.892 34.6608 165.497 34.5651 164.977 34.5651H162.896V36.9676ZM162.896 34.0516H164.774C165.248 34.0516 165.612 33.9558 165.863 33.7642C166.121 33.5656 166.25 33.2752 166.25 32.8911C166.25 32.507 166.121 32.2186 165.863 32.0271C165.612 31.8295 165.248 31.7296 164.774 31.7296H162.896V34.0516Z" fill="black"/>
<path d="M156.167 37.5539C155.726 37.5576 155.289 37.4781 154.877 37.3195C154.495 37.1638 154.146 36.9344 153.85 36.644C153.564 36.3501 153.335 36.0052 153.174 35.6272C153.014 35.2207 152.933 34.7868 152.937 34.3495C152.937 33.887 153.017 33.4641 153.174 33.08C153.338 32.6908 153.564 32.3515 153.85 32.0632C154.142 31.7698 154.485 31.5436 154.877 31.3888C155.287 31.2231 155.725 31.1404 156.167 31.1452C156.63 31.1452 157.056 31.2268 157.449 31.3888C157.841 31.5446 158.181 31.7657 158.467 32.054C158.761 32.3424 158.985 32.6816 159.143 33.0719C159.307 33.4611 159.389 33.887 159.389 34.3495C159.389 34.8111 159.307 35.237 159.143 35.6272C158.991 36.0095 158.76 36.3557 158.467 36.644C158.176 36.9352 157.831 37.1649 157.449 37.3195C157.041 37.4787 156.606 37.5582 156.167 37.5539ZM156.167 36.9599C156.536 36.9599 156.876 36.8968 157.186 36.7704C157.501 36.6379 157.774 36.4545 158.002 36.2212C158.236 35.9818 158.418 35.7056 158.546 35.3939C158.676 35.075 158.739 34.7275 158.739 34.3495C158.739 33.9715 158.676 33.6261 158.546 33.3144C158.423 33.0041 158.237 32.7221 158.002 32.486C157.773 32.2459 157.494 32.0588 157.186 31.9379C156.863 31.8031 156.516 31.7355 156.167 31.7392C155.799 31.7392 155.457 31.8054 155.141 31.9379C154.83 32.0602 154.549 32.2469 154.316 32.486C154.088 32.7204 153.906 32.9955 153.771 33.3144C153.643 33.6261 153.578 33.9715 153.578 34.3495C153.578 34.7214 153.643 35.0668 153.771 35.3848C153.906 35.7026 154.088 35.9818 154.316 36.2212C154.55 36.4555 154.825 36.6389 155.141 36.7714C155.457 36.8968 155.799 36.9599 156.167 36.9599Z" fill="black"/>
<path d="M145.933 37.4994V31.1987H148.234C148.754 31.1987 149.202 31.2864 149.577 31.4596C149.951 31.6277 150.237 31.8742 150.436 32.1982C150.642 32.5161 150.743 32.9034 150.743 33.3598C150.743 33.803 150.642 34.1871 150.436 34.5111C150.229 34.8368 149.93 35.0935 149.577 35.2487C149.202 35.423 148.754 35.5096 148.234 35.5096H146.294L146.583 35.1947V37.4994H145.933ZM146.583 35.2487L146.294 34.9247H148.216C148.831 34.9247 149.295 34.7902 149.611 34.5202C149.934 34.2441 150.094 33.857 150.094 33.3587C150.094 32.8555 149.934 32.4652 149.611 32.1891C149.295 31.913 148.831 31.7755 148.216 31.7755H146.294L146.583 31.4596V35.2487Z" fill="black"/>
<path d="M139.472 37.0686C138.74 37.0686 138.115 36.9637 137.593 36.7528C137.073 36.5368 136.672 36.2251 136.391 35.8175C136.11 35.41 135.969 34.9168 135.969 34.3412C135.969 33.7655 136.11 33.2765 136.391 32.8739C136.672 32.4665 137.073 32.1546 137.593 31.9386C138.115 31.7226 138.74 31.6146 139.472 31.6146H139.629C140.366 31.6146 140.997 31.7226 141.517 31.9386C142.039 32.1546 142.439 32.4665 142.72 32.8739C143.001 33.2765 143.141 33.7655 143.141 34.3412C143.141 34.9168 143.001 35.4089 142.72 35.8175C142.444 36.2251 142.046 36.5368 141.526 36.7528C141.005 36.9627 140.382 37.0686 139.656 37.0686H139.472ZM139.542 36.546H139.603C140.217 36.5398 140.742 36.4532 141.175 36.2851C141.614 36.112 141.947 35.8623 142.175 35.5383C142.403 35.2082 142.518 34.8088 142.518 34.3412C142.518 33.8673 142.4 33.4679 142.167 33.1439C141.939 32.8199 141.607 32.5734 141.175 32.4063C140.748 32.2331 140.23 32.1455 139.621 32.1455H139.542C138.921 32.1455 138.392 32.2291 137.953 32.3972C137.515 32.5652 137.178 32.8149 136.943 33.1439C136.709 33.4679 136.593 33.8673 136.593 34.3412C136.593 34.8211 136.709 35.2266 136.943 35.5566C137.184 35.8806 137.523 36.1262 137.962 36.2943C138.407 36.4625 138.933 36.546 139.542 36.546ZM139.253 37.7166V30.9839H139.859V37.7166H139.253Z" fill="black"/>
<path d="M128.016 37.4994V31.1987H128.656V36.4184L132.588 31.1987H133.176V37.4994H132.536V32.2869L128.604 37.4984L128.016 37.4994Z" fill="black"/>
<path d="M119.438 37.4994V31.1987H120.078V36.9227H123.791V31.1987H124.432V37.4994H119.438ZM124.8 38.9747V37.3201L124.967 37.5004H123.791V36.9227L125.407 36.9238V38.9758L124.8 38.9747Z" fill="black"/>
<path d="M107.071 37.4994L109.881 31.1987H110.521L113.331 37.4994H112.646L110.065 31.586H110.329L107.747 37.4994H107.071ZM108.178 35.8162L108.371 35.2762H111.944L112.136 35.8162H108.178Z" fill="black"/>
<path d="M104.983 37.4994L102.622 34.3582L103.148 34.0342L105.729 37.4984L104.983 37.4994ZM100.778 37.4994V31.1987H101.411V37.4994H100.778ZM101.217 34.61V34.0251H103.14V34.61H101.217ZM103.201 34.4215L102.604 34.3135L104.895 31.1987H105.597L103.201 34.4215Z" fill="black"/>
<path d="M92.2253 37.4994V31.1987H92.8671V36.4194L96.7987 31.1987H97.3876V37.4994H96.7458V32.2869L92.8142 37.4984L92.2253 37.4994Z" fill="black"/>
<path d="M88.1948 31.1987H88.8345V37.4994H88.1948V31.1987ZM84.3495 37.4994H83.6997V31.1987H84.3495V37.4994ZM88.2557 34.5916H84.2795V34.0067H88.2557V34.5916Z" fill="black"/>
<path d="M75.1484 37.4994V31.1987H75.7892V36.4194L79.7217 31.1987H80.3106V37.4994H79.669V32.2869L75.7363 37.4984L75.1484 37.4994Z" fill="black"/>
<path d="M66.4923 37.5524C66.4112 37.5524 66.332 37.5474 66.2558 37.5351C66.17 37.5274 66.0851 37.5124 66.002 37.4902L66.0527 36.8962C66.1532 36.9197 66.2498 36.932 66.3432 36.932C66.4663 36.9354 66.5884 36.9084 66.6987 36.8532C66.809 36.7982 66.9042 36.7167 66.9757 36.6161C67.1392 36.4011 67.262 36.071 67.3442 35.6278C67.4255 35.1764 67.4783 34.6007 67.5017 33.8987L67.59 31.1987H71.7591V37.4994H71.1185V31.5941L71.285 31.7744H68.0022L68.1606 31.5849L68.0814 33.8804C68.0646 34.428 68.0206 34.9745 67.9494 35.5177C67.9016 35.9086 67.8075 36.2924 67.6692 36.6609C67.5464 36.9604 67.388 37.1857 67.195 37.3364C67.002 37.479 66.7676 37.5524 66.4923 37.5524Z" fill="black"/>
<path d="M63.759 37.4994L61.3972 34.3582L61.9253 34.0342L64.5043 37.4984L63.759 37.4994ZM59.5554 37.4994V31.1987H60.1859V37.4994H59.5554ZM59.993 34.61V34.0251H61.9161V34.61H59.993ZM61.977 34.4215L61.38 34.3135L63.6717 31.1987H64.3733L61.977 34.4215Z" fill="black"/>
</g>
</svg>
